<svg width="147" height="28" viewBox="0 0 147 28" fill="none" xmlns="http://www.w3.org/2000/svg">
<path d="M24.138 27.284H2.68843C1.28666 27.284 0.146606 26.1475 0.146606 24.7422V3.29256C0.146606 1.89079 1.28308 0.750732 2.68843 0.750732H24.138C25.5398 0.750732 26.6799 1.88721 26.6799 3.29256V24.7422C26.6763 26.1475 25.5398 27.284 24.138 27.284Z" fill="#0472FF"/>
<path opacity="0.3" fill-rule="evenodd" clip-rule="evenodd" d="M18.8322 18.6368C19.9293 17.3498 20.5351 15.7257 20.5316 14.0192C20.5316 12.3163 19.9293 10.6887 18.8358 9.40522L19.8755 8.36554C21.245 9.92864 21.9979 11.9255 22.0014 14.0192C22.0014 16.1129 21.245 18.1098 19.8755 19.6765L18.8322 18.6368ZM15.0966 14.9012C15.2364 14.6287 15.3153 14.3311 15.3117 14.0192C15.3117 13.7109 15.24 13.4098 15.0966 13.1445L16.1613 12.0797C16.5629 12.6426 16.7744 13.3166 16.778 14.0192C16.778 14.7255 16.5593 15.3995 16.1577 15.9624L15.0966 14.9012ZM16.9787 16.7833C17.5882 15.9946 17.9216 15.0266 17.9216 14.0192C17.9216 13.0118 17.5882 12.0474 16.9823 11.2587L18.0256 10.2154C18.9039 11.2838 19.3915 12.621 19.3915 14.0192C19.3915 15.4174 18.9075 16.7547 18.0256 17.8266L16.9787 16.7833Z" fill="white"/>
<path d="M18.531 19.9489L18.0255 19.4434L17.2152 18.6332L16.172 17.5899C15.4048 18.1778 14.4475 18.5328 13.4079 18.5328C10.9198 18.5328 8.89782 16.5108 8.89782 14.0227C8.89782 11.5275 10.9162 9.50551 13.4114 9.5091C14.4511 9.5091 15.4048 9.86044 16.1684 10.452L17.2152 9.40513L18.0255 8.5949L18.531 8.0894L19.0651 7.55522C17.5558 6.23591 15.5768 5.43285 13.4114 5.42926C11.2425 5.42926 9.26708 6.23232 7.75417 7.55522L8.79385 8.5949C10.0379 7.53371 11.6476 6.89198 13.4114 6.89557C14.6376 6.89198 15.7884 7.20388 16.7958 7.74523L15.9461 8.5949C15.1753 8.23639 14.3185 8.03562 13.4114 8.03562C10.1096 8.03562 7.43152 10.7101 7.43152 14.0156C7.43152 17.3174 10.106 19.9955 13.4114 19.9955C14.3185 19.9955 15.1753 19.7947 15.9461 19.4362L16.7958 20.2859C15.792 20.8308 14.6376 21.1391 13.4079 21.1391C11.6476 21.1391 10.0379 20.501 8.79744 19.4398L7.75776 20.4795C9.2635 21.8024 11.2425 22.6019 13.4114 22.6054C15.5768 22.609 17.5558 21.8024 19.0651 20.4795L18.531 19.9489Z" fill="white"/>
<path d="M6.28783 14.0228C6.28783 12.2589 6.92956 10.6492 7.98716 9.40522L6.94749 8.36554C5.62818 9.87486 4.82153 11.8538 4.82153 14.0192C4.82153 16.1882 5.62101 18.1672 6.94749 19.6729L7.98716 18.6332C6.92956 17.3928 6.29142 15.7795 6.28783 14.0228Z" fill="white"/>
<path opacity="0.3" d="M13.4115 14.7864C13.8309 14.7828 14.1715 14.4422 14.1751 14.0228C14.1751 13.5998 13.831 13.2556 13.4079 13.2556C12.9885 13.2592 12.6479 13.5998 12.6443 14.0192C12.6479 14.4423 12.9885 14.7864 13.4115 14.7864Z" fill="white"/>
<path d="M35.3992 20.1859C34.6719 19.5812 34.3082 18.7202 34.3082 17.6029V15.2659C34.3082 14.1452 34.6719 13.2842 35.3992 12.6829C36.1265 12.0781 37.1645 11.7775 38.5167 11.7775C40.2043 11.7775 41.4153 12.2729 42.1426 13.2671L40.409 14.627C40.0984 14.2751 39.8124 14.0256 39.5511 13.8821C39.2899 13.7386 38.9474 13.6669 38.5167 13.6669C37.9836 13.6669 37.5705 13.807 37.2774 14.0803C36.9844 14.3571 36.8396 14.7534 36.8396 15.2693V17.6063C36.8396 18.1222 36.9844 18.5186 37.2774 18.7953C37.5705 19.0721 37.9836 19.2087 38.5167 19.2087C38.9439 19.2087 39.2899 19.137 39.5511 18.9935C39.8124 18.85 40.0984 18.6006 40.409 18.2487L42.1426 19.6085C41.7789 20.1107 41.3093 20.4866 40.7409 20.7292C40.169 20.9752 39.4276 21.0982 38.5202 21.0982C37.168 21.0913 36.1265 20.7907 35.3992 20.1859Z" fill="white"/>
<path d="M44.5012 20.1858C43.7739 19.5811 43.4103 18.7201 43.4103 17.6028V15.2658C43.4103 14.1451 43.7739 13.2841 44.5012 12.6828C45.2285 12.078 46.2665 11.7774 47.6187 11.7774C48.9709 11.7774 50.0089 12.078 50.7362 12.6828C51.4635 13.2875 51.8272 14.1485 51.8272 15.2658V17.6028C51.8272 18.7235 51.4635 19.5845 50.7362 20.1858C50.0089 20.7906 48.9709 21.0912 47.6187 21.0912C46.2665 21.0912 45.2285 20.7906 44.5012 20.1858ZM48.858 18.7918C49.151 18.5151 49.2957 18.1187 49.2957 17.6028V15.2658C49.2957 14.7499 49.151 14.3535 48.858 14.0768C48.5649 13.8 48.1518 13.6634 47.6187 13.6634C47.0856 13.6634 46.6725 13.8035 46.3795 14.0768C46.0865 14.3535 45.9417 14.7499 45.9417 15.2658V17.6028C45.9417 18.1187 46.0865 18.5151 46.3795 18.7918C46.6725 19.0686 47.0856 19.2052 47.6187 19.2052C48.1518 19.2052 48.5649 19.0686 48.858 18.7918Z" fill="white"/>
<path d="M54.3441 10.3971C54.0581 10.1203 53.9169 9.78893 53.9169 9.39601C53.9169 9.02018 54.0581 8.68876 54.3441 8.40517C54.63 8.12159 54.9725 7.98151 55.3785 7.98151C55.7669 7.98151 56.1094 8.12159 56.4024 8.40517C56.6954 8.68876 56.8402 9.01676 56.8402 9.39601C56.8402 9.78551 56.6954 10.1203 56.4024 10.3971C56.1094 10.6738 55.7704 10.8105 55.3785 10.8105C54.9725 10.8139 54.63 10.6738 54.3441 10.3971ZM54.4994 19.9706C54.2381 19.5504 54.111 18.9627 54.111 18.2076V12.0029H56.646V18.1325C56.646 18.4707 56.7131 18.7475 56.8508 18.9627C56.9885 19.178 57.2321 19.4103 57.5816 19.6597L55.8869 21.0947C55.2196 20.7667 54.7571 20.3909 54.4994 19.9706Z" fill="white"/>
<path d="M66.9238 12.5667C67.464 13.0962 67.7323 13.8479 67.7323 14.8285V20.8623H65.1974V15.054C65.1974 14.6269 65.0773 14.2887 64.8373 14.0358C64.5972 13.783 64.2759 13.66 63.8734 13.66C63.0155 13.66 62.3976 14.152 62.0234 15.1326V20.8658H59.4885V14.7362C59.4885 14.398 59.4214 14.1212 59.2837 13.906C59.146 13.6907 58.9024 13.4584 58.5529 13.209L60.2475 11.774C60.6641 11.9756 60.9925 12.1874 61.2326 12.4163C61.4726 12.6418 61.6562 12.9083 61.7869 13.209C62.0587 12.7819 62.4259 12.4368 62.8884 12.1703C63.3509 11.9072 63.9228 11.774 64.6148 11.774C65.614 11.774 66.3837 12.0371 66.9238 12.5667Z" fill="white"/>
<path d="M71.3969 20.8931C70.9414 20.7599 70.5778 20.5822 70.3059 20.3567C70.0341 20.1312 69.7481 19.8237 69.448 19.4308L71.0262 18.129C71.3651 18.5322 71.6793 18.8124 71.9724 18.9695C72.2654 19.1267 72.6644 19.2053 73.1728 19.2053C73.7306 19.2053 74.1366 19.1404 74.3908 19.0071C74.645 18.8739 74.7721 18.6655 74.7721 18.375C74.7721 18.0983 74.6132 17.883 74.2955 17.7327C73.9777 17.5824 73.3563 17.432 72.4349 17.2783C70.6166 16.94 69.7057 15.9834 69.7057 14.4117C69.7057 13.6088 70.0376 12.9664 70.7014 12.4881C71.3651 12.0098 72.2477 11.7706 73.3528 11.7706C74.2743 11.7706 75.0051 11.9004 75.5453 12.1567C76.0855 12.4129 76.5233 12.7888 76.8622 13.2808L75.3017 14.562C74.9628 14.234 74.6591 14.0017 74.3873 13.865C74.1154 13.7284 73.7694 13.6566 73.3528 13.6566C72.5231 13.6566 72.1065 13.9402 72.1065 14.5039C72.1065 14.767 72.2442 14.9686 72.5267 15.1087C72.8056 15.2488 73.1586 15.3547 73.5894 15.4299C74.3943 15.6075 75.0334 15.7852 75.51 15.9663C75.9831 16.1474 76.3785 16.4344 76.6998 16.8239C77.0175 17.2134 77.1764 17.7498 77.1764 18.4263C77.1764 19.3317 76.8445 20.0014 76.1808 20.4353C75.517 20.8692 74.5179 21.0845 73.1798 21.0845C72.4419 21.0913 71.8523 21.0264 71.3969 20.8931Z" fill="white"/>
<path d="M83.8704 19.0652C84.1705 18.9456 84.4953 18.7338 84.8448 18.4331L86.3453 19.7519C85.5933 20.6437 84.3753 21.0913 82.7018 21.0913C81.2084 21.0913 80.128 20.8179 79.4678 20.2713C78.8076 19.7246 78.4722 18.8363 78.4722 17.6028V14.9071C78.4722 13.9402 78.8323 13.1748 79.5525 12.6145C80.2728 12.0542 81.2578 11.774 82.5041 11.774C83.7892 11.774 84.7954 12.0712 85.5262 12.6692C86.2535 13.2671 86.6172 14.1383 86.6172 15.2829C86.6172 15.8364 86.5678 16.2635 86.4724 16.5642C86.3736 16.8648 86.1829 17.0903 85.897 17.2338C85.611 17.3773 85.1944 17.4525 84.6507 17.4525H80.9859V17.6233C80.9859 18.7064 81.5579 19.2463 82.7018 19.2463C83.1819 19.2428 83.5703 19.1848 83.8704 19.0652ZM81.3849 14.029C81.1201 14.2989 80.9859 14.6542 80.9859 15.095V15.7749H83.2067C83.5456 15.7749 83.7786 15.7237 83.9093 15.6246C84.0399 15.5255 84.1034 15.3478 84.1034 15.0984C84.1034 14.6201 83.9657 14.2545 83.6939 14.0051C83.422 13.7522 83.0231 13.6292 82.5041 13.6292C82.0239 13.6224 81.6497 13.7591 81.3849 14.029Z" fill="white"/>
<path d="M93.4771 19.0652C93.7772 18.9456 94.102 18.7338 94.4515 18.4331L95.952 19.7519C95.2 20.6437 93.982 21.0913 92.3085 21.0913C90.8151 21.0913 89.7347 20.8179 89.0745 20.2713C88.4107 19.7246 88.0789 18.8363 88.0789 17.6028V14.9071C88.0789 13.9402 88.439 13.1748 89.1592 12.6145C89.8795 12.0542 90.8645 11.774 92.1108 11.774C93.3959 11.774 94.4021 12.0712 95.1329 12.6692C95.8602 13.2671 96.2239 14.1383 96.2239 15.2829C96.2239 15.8364 96.1745 16.2635 96.0791 16.5642C95.9803 16.8648 95.7896 17.0903 95.5036 17.2338C95.2177 17.3773 94.8011 17.4525 94.2574 17.4525H90.5926V17.6233C90.5926 18.7064 91.1646 19.2463 92.3085 19.2463C92.7886 19.2428 93.177 19.1848 93.4771 19.0652ZM90.9916 14.029C90.7268 14.2989 90.5926 14.6542 90.5926 15.095V15.7749H92.8134C93.1523 15.7749 93.3853 15.7237 93.5159 15.6246C93.6466 15.5255 93.7101 15.3478 93.7101 15.0984C93.7101 14.6201 93.5724 14.2545 93.3006 14.0051C93.0287 13.7522 92.6298 13.6292 92.1108 13.6292C91.6306 13.6224 91.2599 13.7591 90.9916 14.029Z" fill="white"/>
<path d="M106.808 20.8658H104.217L103.359 17.8865C103.257 17.5345 103.098 17.2749 102.889 17.104C102.681 16.9332 102.332 16.8239 101.837 16.7726L100.57 18.0163V20.8658H98.035V9.68302C98.035 9.34477 97.9679 9.06802 97.8302 8.85277C97.6925 8.63752 97.4489 8.40519 97.0994 8.15577L98.794 6.72076C99.4578 7.04877 99.9168 7.42118 100.178 7.84143C100.439 8.26169 100.566 8.84936 100.566 9.60444V15.037L103.606 11.9995H106.685L103.585 15.037C104.21 15.1873 104.694 15.4845 105.036 15.9253C105.379 16.366 105.682 17.0186 105.943 17.8865L106.808 20.8658Z" fill="white"/>
<path d="M113.276 19.0652C113.577 18.9456 113.901 18.7338 114.251 18.4331L115.751 19.7519C114.999 20.6437 113.781 21.0913 112.108 21.0913C110.614 21.0913 109.534 20.8179 108.874 20.2713C108.21 19.7246 107.878 18.8363 107.878 17.6028V14.9071C107.878 13.9402 108.238 13.1748 108.959 12.6145C109.679 12.0542 110.664 11.774 111.91 11.774C113.195 11.774 114.201 12.0712 114.932 12.6692C115.66 13.2671 116.023 14.1383 116.023 15.2829C116.023 15.8364 115.974 16.2635 115.878 16.5642C115.78 16.8648 115.589 17.0903 115.303 17.2338C115.017 17.3773 114.6 17.4525 114.057 17.4525H110.392V17.6233C110.392 18.7064 110.964 19.2463 112.108 19.2463C112.588 19.2428 112.98 19.1848 113.276 19.0652ZM110.794 14.029C110.53 14.2989 110.395 14.6542 110.395 15.095V15.7749H112.616C112.955 15.7749 113.188 15.7237 113.319 15.6246C113.449 15.5255 113.513 15.3478 113.513 15.0984C113.513 14.6201 113.375 14.2545 113.103 14.0051C112.832 13.7522 112.433 13.6292 111.914 13.6292C111.433 13.6224 111.059 13.7591 110.794 14.029Z" fill="white"/>
<path d="M124.641 12.3036L124.016 14.3399C123.745 14.1623 123.483 14.0393 123.236 13.9641C122.989 13.8889 122.685 13.8513 122.322 13.8513C121.464 13.8513 120.846 14.4048 120.472 15.5118V20.8692H117.937V14.7397C117.937 14.4014 117.87 14.1247 117.732 13.9094C117.594 13.6942 117.351 13.4618 117.001 13.2124L118.696 11.7774C119.137 12.0029 119.487 12.2421 119.748 12.4949C120.009 12.7478 120.196 13.0484 120.313 13.4003C120.574 12.9118 120.917 12.5154 121.347 12.2216C121.775 11.9278 122.301 11.7774 122.926 11.7774C123.6 11.774 124.172 11.9517 124.641 12.3036Z" fill="white"/>
<path d="M124.602 20.6676C124.302 20.384 124.154 20.0423 124.154 19.6392C124.154 19.236 124.302 18.8875 124.602 18.5937C124.903 18.2998 125.266 18.1495 125.693 18.1495C126.096 18.1495 126.445 18.2964 126.745 18.5937C127.046 18.8909 127.194 19.2394 127.194 19.6392C127.194 20.0423 127.049 20.384 126.756 20.6676C126.463 20.9512 126.11 21.0913 125.693 21.0913C125.263 21.0913 124.899 20.9512 124.602 20.6676Z" fill="white"/>
<path d="M129.648 20.1859C128.92 19.5812 128.557 18.7202 128.557 17.6029V15.2659C128.557 14.1452 128.92 13.2842 129.648 12.6829C130.375 12.0781 131.413 11.7775 132.765 11.7775C134.453 11.7775 135.664 12.2729 136.391 13.2671L134.657 14.627C134.347 14.2751 134.061 14.0256 133.8 13.8821C133.538 13.7386 133.196 13.6669 132.765 13.6669C132.232 13.6669 131.819 13.807 131.526 14.0803C131.233 14.3571 131.088 14.7534 131.088 15.2693V17.6063C131.088 18.1222 131.233 18.5186 131.526 18.7953C131.819 19.0721 132.232 19.2087 132.765 19.2087C133.196 19.2087 133.538 19.137 133.8 18.9935C134.061 18.85 134.343 18.6006 134.657 18.2487L136.391 19.6085C136.027 20.1107 135.561 20.4866 134.989 20.7292C134.417 20.9752 133.676 21.0982 132.769 21.0982C131.416 21.0913 130.375 20.7907 129.648 20.1859Z" fill="white"/>
<path d="M138.749 20.1858C138.022 19.5811 137.658 18.7201 137.658 17.6028V15.2658C137.658 14.1451 138.022 13.2841 138.749 12.6828C139.476 12.078 140.514 11.7774 141.867 11.7774C143.219 11.7774 144.257 12.078 144.984 12.6828C145.711 13.2875 146.075 14.1485 146.075 15.2658V17.6028C146.075 18.7235 145.711 19.5845 144.984 20.1858C144.257 20.7906 143.219 21.0912 141.867 21.0912C140.518 21.0912 139.476 20.7906 138.749 20.1858ZM143.106 18.7918C143.399 18.5151 143.544 18.1187 143.544 17.6028V15.2658C143.544 14.7499 143.399 14.3535 143.106 14.0768C142.813 13.8 142.4 13.6634 141.867 13.6634C141.334 13.6634 140.92 13.8035 140.627 14.0768C140.334 14.3535 140.19 14.7499 140.19 15.2658V17.6028C140.19 18.1187 140.334 18.5151 140.627 18.7918C140.92 19.0686 141.334 19.2052 141.867 19.2052C142.4 19.2052 142.813 19.0686 143.106 18.7918Z" fill="white"/>
</svg>
